<svg xmlns="http://www.w3.org/2000/svg" xml:space="preserve" width="2000" height="78" data-id="lg_FMyNpeyBI7Z6icBIIb" data-version="1" viewBox="0 0 2000 78"><g data-padding="20"><g transform="translate(10 1.359)scale(.96516)"><rect width="420.831" height="77.772" x="408.638" y="-399.816" fill="none" rx="0" ry="0" transform="translate(483.06 399.93)"/><path fill="#31302e" d="M904.694 13.73v38.68h18.1v7.71h-26.78V13.73Zm33.86 46.39h-8.67V13.73h8.67Zm18.85 0h-8.68V13.73h9.85l11.15 19.34q2.75 4.75 4.92 8.84 2.16 4.1 2.92 5.82l.76 1.72q-.55-5.71-.55-16.38V13.73h8.74v46.39h-9.91l-11.29-19.27q-2.68-4.55-4.85-8.71t-3-6.02l-.82-1.93q.76 6.54.76 16.59Zm47.36 0h-8.67V13.73h8.67Zm27.11-46.39-16.1 23.26 17.27 23.13h-10.94l-16.65-22.99 16.03-23.4Zm33.25 1.93v8.39q-5.16-3.09-11.02-3.09-3.23 0-5.05 1.44-1.83 1.45-1.83 3.72t1.96 3.75q1.97 1.48 5.89 3.27 2.75 1.24 4.47 2.17t3.75 2.58 3.03 3.96q1 2.3 1 5.26 0 6.19-4.44 9.88-4.44 3.68-11.67 3.68-7.84 0-13-2.96v-8.88q5.92 4.27 12.94 4.27 3.16 0 5.09-1.55t1.93-4.16q0-1.24-.49-2.21-.48-.96-1.96-1.92-1.48-.97-2.27-1.38t-3.27-1.51q-.69-.35-1.03-.49-2.55-1.17-4.13-2.1-1.58-.92-3.44-2.51-1.86-1.58-2.79-3.78-.93-2.21-.93-5.03 0-5.92 4.37-9.49 4.37-3.58 11.6-3.58 6.54 0 11.29 2.27m6.81-1.93h32.28v7.16h-11.77v39.23h-8.74V20.89h-11.77Zm51.21 26.77-.62 2h13.07l-.62-2.07q-2.34-7.43-3.82-12.49t-1.82-6.36l-.27-1.38q-.62 3.44-5.92 20.3m27.32 19.62h-9.36l-3.3-10.53h-17.55l-3.31 10.53h-9.08l15.69-46.39h11.22Zm32.49-44.46v8.39q-5.17-3.09-11.02-3.09-3.23 0-5.06 1.44-1.82 1.45-1.82 3.72t1.96 3.75 5.89 3.27q2.75 1.24 4.47 2.17t3.75 2.58 3.03 3.96q1 2.3 1 5.26 0 6.19-4.44 9.88-4.44 3.68-11.67 3.68-7.84 0-13-2.96v-8.88q5.91 4.27 12.93 4.27 3.17 0 5.1-1.55 1.92-1.55 1.92-4.16 0-1.24-.48-2.21-.48-.96-1.96-1.92-1.48-.97-2.27-1.38t-3.27-1.51q-.69-.35-1.03-.49-2.55-1.17-4.13-2.1-1.58-.92-3.44-2.51-1.86-1.58-2.79-3.78-.93-2.21-.93-5.03 0-5.92 4.37-9.49 4.37-3.58 11.6-3.58 6.54 0 11.29 2.27m37.56 17.48V13.73h8.74v46.39h-8.74V40.64h-19.06v19.48h-8.67V13.73h8.67v19.41Zm27.13 7.29v12.6h18.93v7.09h-27.67V13.73h27.39v7.09h-18.65v12.59h16.59v7.02Zm41.92-19.54h-5.65v15.14h5.78q4 0 5.99-2.03 2-2.03 2-5.68 0-3.58-2.1-5.5-2.1-1.93-6.02-1.93m20.02 39.23h-10.39l-10.53-16.93h-4.75v16.93h-8.67V13.73h14.32q7.91 0 12.42 3.99t4.51 10.67q-.07 4.96-2.41 8.36-2.34 3.41-6.4 5.06Z"/><path fill="#6d28d9" d="M864.657 21.853c-.073-11.535-9.476-20.829-21.011-20.77l-50.451.12c-11.212.027-20.406 8.897-20.837 20.1l-12.502.027c-11.54 0-20.896 9.35-20.904 20.891l.027 9.26c.08 11.529 9.48 20.815 21.01 20.756l50.465-.134c11.207-.035 20.392-8.902 20.824-20.1l12.502-.027c11.535 0 20.89-9.342 20.904-20.877Zm-54.243 39.45-50.451.134a10.05 10.05 0 0 1-10.117-10.01l-.027-9.246c0-5.534 4.503-10.05 10.077-10.05l12.489-.04c.442 11.122 9.648 20.033 20.944 19.992l27.08-.067a10.05 10.05 0 0 1-9.995 9.287m-27.162-29.226 27.095-.08a10.05 10.05 0 0 1 10.05 9.246l-27.108.067a10.05 10.05 0 0 1-10.037-9.246m60.5 9.098-12.501.027c-.49-11.198-9.722-20.018-20.93-19.993l-27.096.067a10.05 10.05 0 0 1 9.997-9.286l50.45-.134a10.05 10.05 0 0 1 10.118 10.01l.027 9.26a10.05 10.05 0 0 1-10.064 10.05"/></g><path fill="transparent" stroke="transparent" d="M713 0h574v78H713z"/></g></svg>